<?xml version="1.0" encoding="iso-8859-1"?>
<!-- Uploaded to: SVG Repo, www.svgrepo.com, Generator: SVG Repo Mixer Tools -->
<svg fill="#000000" height="800px" width="800px" version="1.1" id="Layer_1" xmlns="http://www.w3.org/2000/svg" xmlns:xlink="http://www.w3.org/1999/xlink" 
	 viewBox="0 0 512 512" xml:space="preserve">
<g>
	<g>
		<g>
			<path d="M277.333,215.253v-44.587h21.333c11.797,0,21.333-9.557,21.333-21.333c0-11.776-9.536-21.333-21.333-21.333h-85.333
				C201.536,128,192,137.557,192,149.333c0,11.776,9.536,21.333,21.333,21.333h21.333v44.587
				C174.229,225.472,128,278.037,128,341.333c0,35.307,14.379,67.328,37.568,90.496l-13.995,27.968
				c-5.269,10.539-0.981,23.339,9.557,28.629c3.051,1.515,6.315,2.24,9.515,2.24c7.829,0,15.36-4.309,19.115-11.797l11.093-22.208
				c16.725,8.043,35.392,12.672,55.147,12.672c19.755,0,38.421-4.629,55.147-12.672l11.093,22.208
				c3.755,7.488,11.285,11.797,19.115,11.797c3.2,0,6.464-0.725,9.515-2.24c10.539-5.291,14.827-18.091,9.557-28.629l-13.995-27.968
				C369.621,408.661,384,376.64,384,341.333C384,278.037,337.771,225.472,277.333,215.253z"/>
			<path d="M213.333,106.667h85.333c11.797,0,21.333-9.557,21.333-21.333S310.464,64,298.667,64h-21.333V42.667
				c0-11.776-9.536-21.333-21.333-21.333c-11.797,0-21.333,9.557-21.333,21.333V64h-21.333C201.536,64,192,73.557,192,85.333
				S201.536,106.667,213.333,106.667z"/>
			<path d="M106.667,170.667c11.797,0,21.333-9.557,21.333-21.333v-64C128,73.557,118.464,64,106.667,64H21.333
				C9.536,64,0,73.557,0,85.333v64c0,11.776,9.536,21.333,21.333,21.333h21.333v268.501l-15.083,15.083
				c-8.341,8.341-8.341,21.824,0,30.165c4.16,4.16,9.621,6.251,15.083,6.251c5.461,0,10.923-2.091,15.083-6.251L64,478.165
				l6.251,6.251c4.16,4.16,9.621,6.251,15.083,6.251c5.461,0,10.923-2.091,15.083-6.251c8.341-8.341,8.341-21.824,0-30.165
				l-15.083-15.083V170.667H106.667z"/>
			<path d="M490.667,64h-85.333C393.536,64,384,73.557,384,85.333v64c0,11.776,9.536,21.333,21.333,21.333h21.333v268.501
				l-15.083,15.083c-8.341,8.341-8.341,21.824,0,30.165c4.16,4.16,9.621,6.251,15.083,6.251c5.461,0,10.923-2.091,15.083-6.251
				l6.251-6.251l6.251,6.251c4.16,4.16,9.621,6.251,15.083,6.251s10.923-2.091,15.083-6.251c8.341-8.341,8.341-21.824,0-30.165
				l-15.083-15.083V170.667h21.333c11.797,0,21.333-9.557,21.333-21.333v-64C512,73.557,502.464,64,490.667,64z"/>
		</g>
	</g>
</g>
</svg>