<!DOCTYPE svg PUBLIC "-//W3C//DTD SVG 1.1//EN" "http://www.w3.org/Graphics/SVG/1.1/DTD/svg11.dtd">
<!-- Uploaded to: SVG Repo, www.svgrepo.com, Transformed by: SVG Repo Mixer Tools -->
<svg fill="#ffe8a3" width="800px" height="800px" viewBox="0 0 32 32" style="fill-rule:evenodd;clip-rule:evenodd;stroke-linejoin:round;stroke-miterlimit:2;" version="1.1" xml:space="preserve" xmlns="http://www.w3.org/2000/svg" xmlns:serif="http://www.serif.com/" xmlns:xlink="http://www.w3.org/1999/xlink">
<g id="SVGRepo_bgCarrier" stroke-width="0"/>
<g id="SVGRepo_tracerCarrier" stroke-linecap="round" stroke-linejoin="round"/>
<g id="SVGRepo_iconCarrier">
<path d="M6.507,17.508l20.963,-0.008c0.828,-0 1.5,-0.673 1.5,-1.501c-0.001,-0.827 -0.673,-1.499 -1.501,-1.499l-20.975,0.008c0.088,-0.119 0.188,-0.231 0.298,-0.334c0,0 9.705,-9.079 9.705,-9.079c0.605,-0.565 0.636,-1.515 0.071,-2.12c-0.566,-0.604 -1.516,-0.636 -2.12,-0.07c-0,-0 -5.9,5.519 -9.705,9.078c-1.118,1.045 -1.749,2.509 -1.743,4.038c0.006,1.53 0.649,2.989 1.774,4.025c3.848,3.543 9.829,9.05 9.829,9.05c0.609,0.56 1.559,0.521 2.119,-0.088c0.561,-0.609 0.522,-1.558 -0.087,-2.119c-0,-0 -5.98,-5.507 -9.828,-9.05c-0.111,-0.102 -0.211,-0.213 -0.3,-0.331Z"/>
<g id="Icon"/>
</g>
</svg>